<svg width="53" height="34" fill="none" xmlns="http://www.w3.org/2000/svg"><path d="M20.713 16.667l.842-.541-.022-.034-.024-.032-.796.607zm-4.958-3.459l-.681-.731-1.284 1.196 1.683.495.282-.96zm6.083-5.666l.682.731.319-.296v-.435h-1zm0-5.542h1V1h-1v1zM3.088 2V1h-1v1h1zm0 5.333h-1v1h1v-1zm11.209 0l.679.734 1.874-1.734h-2.553v1zm-7.25 6.709l-.68-.734-.582.539.393.69.869-.495zM9.589 18.5l-.87.495.503.88.874-.513-.507-.862zm5.666.625l-.707.707.707-.707zm0 6.708l-.707-.707.707.707zm-6.666 0l-.708.707.708-.707zM7.422 23.75l.967-.255-.255-.968-.968.256.256.967zm-5.5 1.458l-.256-.966-.986.261.28.98.962-.275zm2.75 4.542l.683-.73-.683.73zm7.25 2.792l.032-1h-.064l.032 1zm7.25-2.75l.683.73-.683-.73zm3.208-7.25l-.999-.04v.009l1 .03zm-.871-6.482c-1.322-1.731-3.119-3.119-5.472-3.811l-.564 1.919c1.897.558 3.35 1.67 4.446 3.105l1.59-1.213zm-5.072-2.12l6.083-5.667-1.363-1.463-6.083 5.667 1.363 1.463zm6.401-6.398V2h-2v5.542h2zm-1-6.542H3.088v2h18.75V1zM2.088 2v5.333h2V2h-2zm1 6.333h11.209v-2H3.089v2zM13.619 6.6l-7.25 6.709 1.358 1.468 7.25-6.709L13.618 6.6zm-7.44 7.938l2.542 4.458 1.737-.99-2.541-4.459-1.738.99zm3.918 4.825c.578-.34 1.197-.529 1.826-.529v-2c-1.038 0-2.002.312-2.84.805l1.014 1.724zm1.826-.529c1.042 0 1.934.307 2.626 1l1.414-1.415c-1.14-1.141-2.582-1.585-4.04-1.585v2zm2.626 1c.71.71 1.082 1.697 1.082 2.709h2c0-1.489-.545-3.002-1.668-4.124l-1.414 1.414zm1.082 2.709c0 .94-.392 1.895-1.082 2.584l1.414 1.414a5.708 5.708 0 0 0 1.668-3.998h-2zm-1.082 2.584a3.731 3.731 0 0 1-2.626 1.082v2a5.731 5.731 0 0 0 4.04-1.668l-1.414-1.414zm-2.626 1.082c-.987 0-1.94-.395-2.626-1.082L7.88 26.54a5.731 5.731 0 0 0 4.04 1.668v-2zm-2.626-1.082c-.443-.442-.738-.987-.907-1.63l-1.934.509c.247.94.702 1.811 1.426 2.535l1.415-1.414zm-2.13-2.343l-5.5 1.459.512 1.933 5.5-1.458-.512-1.934zm-6.206 2.7A10.99 10.99 0 0 0 3.99 30.48l1.366-1.46a8.99 8.99 0 0 1-2.472-4.086l-1.923.55zm3.028 4.997c2.143 2.006 5.064 3.153 7.966 3.061l-.064-1.999c-2.348.075-4.76-.861-6.535-2.522l-1.367 1.46zm7.902 3.061c2.891.092 5.815-1.006 7.965-3.02l-1.367-1.46c-1.766 1.654-4.176 2.556-6.534 2.481l-.064 2zm7.965-3.02c2.164-2.025 3.434-4.99 3.525-7.949l-2-.061c-.075 2.458-1.138 4.91-2.892 6.55l1.367 1.46zm3.524-7.94c.093-2.31-.6-4.552-1.824-6.455l-1.683 1.081c1.027 1.597 1.583 3.438 1.509 5.295l1.998.08zM31.336 10l-1-.044v.082l1-.038zm.75 3.583l-.918.398.006.013.912-.41zm1.583 2.292l.66.75.753-.66-.663-.752-.75.662zm-2.375 3.292l-.924-.383-.002.006.926.377zm2.584 11.125l.643-.766-.008-.006-.635.772zm14.291 0l-.63-.777-.01.008.64.769zM51.503 23l.999.043.001-.039-.001-.039-1 .035zm-.75-3.833l.926-.377-.002-.006-.924.383zm-2.375-3.292l-.75-.662-.663.751.752.662.66-.751zm1.541-2.292l-.906-.423-.006.013.912.41zM47.378 3.25l-.616.788.014.011.014.01.588-.809zm-12.709 0l.583.813.013-.01.013-.01-.609-.793zm3.667 4.292l.636.772.011-.01.011-.01-.658-.752zm2.667-.875l.04-1-.041-.001-.041.002.042.999zm2.708.875l.658-.753-.658.753zM44.669 10l-.999-.042-.002.042.002.042 1-.042zm-.958 2.458l-.659-.752.659.752zm-5.375 0l.658-.752-.01-.01-.012-.01-.636.772zm5.958 13.709l.688.726.001-.001-.689-.725zm-6.583 0l-.689.725.01.009.01.009.669-.743zm0-6.334l.669.744.01-.01.01-.009-.69-.725zm6.583 0l-.707.707.019.019.02.018.668-.744zm-13.957-9.795c.044 1.154.223 2.539.831 3.943l1.836-.795c-.475-1.096-.63-2.211-.669-3.224l-1.998.076zm.837 3.956c.438.972 1.101 1.813 1.745 2.543l1.5-1.324c-.606-.686-1.109-1.346-1.421-2.04l-1.824.82zm1.835 1.13a10.116 10.116 0 0 0-2.639 3.66l1.848.765a8.117 8.117 0 0 1 2.112-2.923l-1.321-1.502zm-2.641 3.666a11.095 11.095 0 0 0-.824 4.21h2a9.1 9.1 0 0 1 .677-3.457l-1.853-.753zM29.544 23c0 3.066 1.324 6.109 3.698 8.064l1.271-1.544c-1.876-1.545-2.969-4.003-2.969-6.52h-2zm3.69 8.057c2.056 1.73 5.013 2.568 7.769 2.568v-2c-2.411 0-4.872-.745-6.482-2.099l-1.287 1.531zm7.769 2.568c2.656 0 5.575-.706 7.806-2.565l-1.28-1.537c-1.768 1.474-4.183 2.102-6.526 2.102v2zm7.796-2.557c2.487-2.017 3.569-4.904 3.703-8.025l-1.998-.086c-.117 2.712-1.035 4.992-2.965 6.558l1.26 1.553zm3.703-8.103c-.044-1.276-.222-2.695-.823-4.175l-1.853.753c.482 1.187.638 2.351.677 3.492l1.999-.07zm-.825-4.18a10.115 10.115 0 0 0-2.639-3.66l-1.321 1.5a8.118 8.118 0 0 1 2.112 2.924l1.848-.765zm-2.55-2.248c.665-.753 1.274-1.588 1.704-2.543l-1.824-.821c-.32.711-.794 1.377-1.38 2.04l1.5 1.324zm1.698-2.53c.662-1.419.844-2.823.844-4.007h-2c0 .982-.151 2.078-.656 3.16l1.813.846zM51.67 10c0-2.95-1.291-5.809-3.704-7.56L46.79 4.06c1.837 1.332 2.88 3.557 2.88 5.94h2zm-3.676-7.538C46.048.944 43.51.375 41.003.375v2c2.243 0 4.287.514 5.76 1.663l1.23-1.576zM41.003.375c-2.337 0-4.915.526-6.943 2.082l1.218 1.586c1.556-1.194 3.645-1.668 5.725-1.668v-2zm-6.916 2.062c-2.517 1.804-3.615 4.459-3.75 7.519l1.998.088c.115-2.607 1.017-4.619 2.917-5.981l-1.165-1.626zM38.336 10c0-.814.233-1.355.636-1.686L37.7 6.77c-1.014.835-1.364 2.044-1.364 3.23h2zm.658-1.706c.418-.365 1.148-.59 2.05-.628l-.083-1.998c-1.098.045-2.368.32-3.284 1.121l1.317 1.505zm1.969-.628c.947.038 1.674.265 2.09.628l1.316-1.505c-.917-.803-2.19-1.076-3.326-1.122l-.08 1.999zm2.09.628c.4.35.649.913.617 1.664l1.998.084c.052-1.249-.366-2.437-1.299-3.253l-1.317 1.505zm.617 1.748c.032.751-.217 1.313-.618 1.664l1.317 1.505c.933-.816 1.351-2.004 1.3-3.253l-1.999.084zm-.618 1.664c-.411.36-1.132.586-2.05.586v2c1.167 0 2.446-.275 3.367-1.081l-1.317-1.505zm-2.05.586c-.87 0-1.593-.223-2.008-.586l-1.317 1.505c.92.804 2.196 1.08 3.326 1.08v-2zm-2.03-.606c-.403-.331-.636-.872-.636-1.686h-2c0 1.186.35 2.395 1.364 3.23l1.272-1.544zm4.634 13.755c-.547.519-1.516.85-2.603.85v2c1.413 0 2.944-.418 3.979-1.398l-1.376-1.452zm-2.603.85c-1.07 0-2.018-.323-2.623-.868l-1.338 1.487c1.062.955 2.531 1.382 3.96 1.382v-2zm-2.603-.85c-.565-.536-.856-1.393-.856-2.441h-2c0 1.369.377 2.845 1.478 3.892l1.378-1.45zM37.544 23c0-1.104.297-1.939.836-2.423l-1.338-1.487c-1.128 1.015-1.498 2.514-1.498 3.91h2zm.856-2.442c.599-.569 1.533-.891 2.603-.891v-2c-1.43 0-2.913.427-3.98 1.441l1.377 1.45zm2.603-.891c1.086 0 2.041.33 2.584.873l1.414-1.414c-1.04-1.04-2.585-1.46-3.998-1.46v2zm2.622.91c.554.498.878 1.349.878 2.423h2c0-1.426-.427-2.909-1.54-3.91l-1.338 1.487zM44.503 23c0 1.02-.317 1.89-.898 2.442l1.378 1.45c1.086-1.032 1.52-2.495 1.52-3.892h-2z" fill="#F0CC8E"/></svg>