<svg width="50" height="50" fill="none" xmlns="http://www.w3.org/2000/svg"><path d="M27.328 13.281A2.331 2.331 0 0 0 25 10.953a2.331 2.331 0 0 0-2.328 2.328A2.331 2.331 0 0 0 25 15.61a2.331 2.331 0 0 0 2.328-2.329zM25 14.078a.798.798 0 0 1 0-1.593.798.798 0 0 1 0 1.593zm6.265 32h3.876v-8.563h-3.876v8.563zm1.532-7.03h.812v3.155h-.812v-3.156zm0 4.687h.812v.812h-.812v-.812zm7.813-6.22h-3.876v8.563h3.876v-8.563zm-1.532 7.032h-.812v-1.594h.812v1.594zm0-3.125h-.812v-2.375h.812v2.375zM9.39 46.078h3.876v-8.563H9.39v8.563zm1.532-7.03h.812v2.374h-.812v-2.375zm0 3.905h.812v1.594h-.812v-1.594zm3.938 3.125h3.875v-8.563h-3.876v8.563zm1.53-7.03h.813v2.374h-.812v-2.375zm0 3.905h.813v1.594h-.812v-1.594zm3.938 3.125h3.875v-8.563h-3.875v8.563zm1.532-7.03h.812v2.374h-.812v-2.375zm0 3.905h.812v1.594h-.812v-1.594zm3.937 3.125h3.875v-8.563h-3.875v8.563zm1.531-7.03h.813v.811h-.813v-.812zm0 2.343h.813v3.156h-.813V41.39zM9.39 25.766h3.876v-8.563H9.39v8.563zm1.532-7.031h.812v3.155h-.812v-3.155zm0 4.687h.812v.812h-.812v-.812zm-1.532 12.5h3.876V27.36H9.39v8.563zm1.532-7.031h.812v.812h-.812v-.812zm0 2.344h.812v3.155h-.812v-3.155zm3.938-5.469h3.875v-8.563h-3.876v8.563zm1.53-7.031h.813v1.593h-.812v-1.593zm0 3.125h.813v2.374h-.812V21.86zm-1.53 14.062h3.875V27.36h-3.876v8.563zm1.53-7.031h.813v.812h-.812v-.812zm0 2.344h.813v3.155h-.812v-3.155zm3.938-5.469h3.875v-8.563h-3.875v8.563zm1.532-7.031h.812v1.593h-.812v-1.593zm0 3.125h.812v2.374h-.812V21.86zm-1.532 14.062h3.875V27.36h-3.875v8.563zm1.532-7.031h.812v3.156h-.812V28.89zm0 4.687h.812v.813h-.812v-.813zm3.937-7.812h3.875v-8.563h-3.875v8.563zm1.531-7.031h.813v.812h-.813v-.812zm0 2.343h.813v3.156h-.813v-3.156zm-1.531 14.844h3.875V27.36h-3.875v8.563zm1.531-7.031h.813v1.593h-.813v-1.593zm0 3.125h.813v2.374h-.813v-2.374zm3.937-6.25h3.876v-8.563h-3.876v8.563zm1.532-7.031h.812v3.155h-.812v-3.155zm0 4.687h.812v.812h-.812v-.812zm-1.532 12.5h3.876V27.36h-3.876v8.563zm1.532-7.031h.812v2.374h-.812v-2.374zm0 3.906h.812v1.593h-.812v-1.593zm7.813-15.594h-3.876v8.563h3.876v-8.563zm-1.532 7.031h-.812v-.812h.812v.812zm0-2.344h-.812v-3.155h.812v3.155zm1.532 5.47h-3.876v8.562h3.876V27.36zm-1.532 7.03h-.812v-3.155h.812v3.155zm0-4.687h-.812v-.812h.812v.812z" fill="#F0CC8E"/><path d="M45.297 48.453V13.297h-9.134L25 6.12l-11.162 7.176H4.703v35.156H0v1.531h50v-1.531h-4.703zm-1.532-6.25h-2.359v1.532h2.36v4.718H6.234v-4.718h2.359v-1.532h-2.36V14.828h8.053L25 7.942l10.713 6.886h8.052v27.375zM13.282 3.922h-1.563v1.532h1.563V3.922zM12.5 7.047H7.812v1.531H12.5V7.047zm7.03-4.688h-3.124V3.89h3.125V2.36zm16.407 0h-6.25V3.89h6.25V2.36zm2.344 1.563h-2.344v1.532h2.344V3.922zm1.562 3.125h-1.562v1.531h1.562V7.047z" fill="#F0CC8E"/><path d="M3.906 14.86H2.328v-3.157h3.14v-1.531H3.215l5.38-6.359v.078h3.125V2.359H9.824l.687-.812H39.49l3.331 3.937h-2.976v1.532h4.272l.687.812H42.97V9.36h3.125v-.007l.692.819h-2.255v1.531h3.14v3.156h-1.577v1.532h3.11v-5.734L40.198.015H9.8L.797 10.657v5.734h3.11v-1.532z" fill="#F0CC8E"/><path d="M7.031 11.703h6.462l11.493-6.895 10.727 6.895h7.256v-1.531h-6.806l-2.48-1.594h2.255V7.047H31.3l-6.287-4.042-5.483 3.29v-.03h-3.906v1.532h1.402l-3.958 2.375H7.031v1.531z" fill="#F0CC8E"/></svg>