<svg width="53" height="49" fill="none" xmlns="http://www.w3.org/2000/svg"><path d="M26.5 0c-8.676 0-15.734 6.525-15.734 14.547 0 .423.37.765.828.765.458 0 .828-.342.828-.765C12.422 7.37 18.737 1.53 26.5 1.53c7.763 0 14.078 5.839 14.078 13.016 0 .423.37.765.828.765.458 0 .828-.342.828-.765C42.234 6.525 35.176 0 26.5 0zm20.703 29.094H5.797c-.458 0-.828.342-.828.765 0 .424.37.766.828.766h41.406c.458 0 .828-.342.828-.766 0-.423-.37-.765-.828-.765zm0 16.078H5.797c-.458 0-.828.342-.828.766 0 .423.37.765.828.765h41.406c.458 0 .828-.342.828-.766 0-.423-.37-.765-.828-.765z" fill="#F0CC8E"/><path d="M9.11 29.094c-.459 0-.829.342-.829.765v16.078c0 .424.37.766.828.766.458 0 .829-.342.829-.766V29.86c0-.423-.37-.765-.829-.765zm4.968 0c-.458 0-.828.342-.828.765v16.078c0 .424.37.766.828.766.458 0 .828-.342.828-.766V29.86c0-.423-.37-.765-.828-.765zm4.969 0c-.458 0-.828.342-.828.765v16.078c0 .424.37.766.828.766.458 0 .828-.342.828-.766V29.86c0-.423-.37-.765-.828-.765zm4.969 0c-.458 0-.828.342-.828.765v16.078c0 .424.37.766.828.766.458 0 .828-.342.828-.766V29.86c0-.423-.37-.765-.828-.765zm4.968 0c-.458 0-.828.342-.828.765v16.078c0 .424.37.766.828.766.458 0 .828-.342.828-.766V29.86c0-.423-.37-.765-.828-.765zm4.969 0c-.458 0-.828.342-.828.765v16.078c0 .424.37.766.828.766.458 0 .828-.342.828-.766V29.86c0-.423-.37-.765-.828-.765zm4.969 0c-.458 0-.828.342-.828.765v16.078c0 .424.37.766.828.766.458 0 .828-.342.828-.766V29.86c0-.423-.37-.765-.828-.765zm4.968 0c-.457 0-.828.342-.828.765v16.078c0 .424.37.766.829.766.458 0 .828-.342.828-.766V29.86c0-.423-.37-.765-.828-.765z" fill="#F0CC8E"/><path d="M10.766 47.469c-.457 0-.829-.343-.829-.766s-.37-.766-.828-.766c-.458 0-.828.343-.828.766C8.281 47.97 9.396 49 10.766 49c.458 0 .828-.342.828-.766 0-.423-.37-.765-.828-.765z" fill="#F0CC8E"/><path d="M9.11 45.172c-.459 0-.829.342-.829.766v.765c0 .423.37.766.828.766.458 0 .829-.343.829-.766v-.766c0-.423-.37-.765-.829-.765zm34.78.766c-.457 0-.828.342-.828.765s-.37.766-.828.766c-.458 0-.828.342-.828.765 0 .424.37.766.828.766 1.37 0 2.485-1.03 2.485-2.297 0-.423-.37-.766-.828-.766z" fill="#F0CC8E"/><path d="M43.89 45.172c-.457 0-.828.342-.828.766v.765c0 .423.37.766.829.766.458 0 .828-.343.828-.766v-.766c0-.423-.37-.765-.828-.765zm-1.656 2.297H10.766c-.458 0-.829.342-.829.765 0 .424.37.766.829.766h31.468c.458 0 .828-.342.828-.766 0-.423-.37-.765-.828-.765zm-30.64-33.688c-.458 0-.828.342-.828.766v15.312c0 .424.37.766.828.766.458 0 .828-.342.828-.766V14.547c0-.424-.37-.766-.828-.766zm29.812 0c-.458 0-.828.342-.828.766v15.312c0 .424.37.766.828.766.458 0 .828-.342.828-.766V14.547c0-.424-.37-.766-.828-.766zM26.5 0c-.458 0-.828.342-.828.766v9.953c0 .423.37.765.828.765.458 0 .828-.342.828-.765V.766c0-.424-.37-.766-.828-.766z" fill="#F0CC8E"/><path d="M26.5 9.953c-.458 0-.828.342-.828.766 0 7.177-6.315 13.015-14.078 13.015-.458 0-.828.343-.828.766s.37.766.828.766c8.676 0 15.734-6.526 15.734-14.547 0-.424-.37-.766-.828-.766z" fill="#F0CC8E"/><path d="M41.406 23.734c-7.763 0-14.078-5.838-14.078-13.015 0-.424-.37-.766-.828-.766-.458 0-.828.342-.828.766 0 8.021 7.058 14.547 15.734 14.547.458 0 .828-.343.828-.766s-.37-.766-.828-.766z" fill="#F0CC8E"/><path d="M36.438 22.95c-.459 0-.829.343-.829.766v6.143c0 .424.37.766.828.766.459 0 .829-.342.829-.766v-6.143c0-.423-.37-.766-.828-.766zm-19.875 0c-.458 0-.829.343-.829.766v6.143c0 .424.37.766.829.766.457 0 .828-.342.828-.766v-6.143c0-.423-.37-.766-.828-.766zm-10.766.019c-1.37 0-2.484 1.03-2.484 2.297 0 1.266 1.114 2.297 2.484 2.297 1.37 0 2.484-1.031 2.484-2.297 0-1.267-1.114-2.297-2.484-2.297zm0 3.062c-.457 0-.828-.343-.828-.765 0-.423.37-.766.828-.766.457 0 .828.343.828.766 0 .422-.371.765-.828.765zm41.406-3.062c-1.37 0-2.484 1.03-2.484 2.297 0 1.266 1.114 2.297 2.484 2.297 1.37 0 2.484-1.031 2.484-2.297 0-1.267-1.114-2.297-2.484-2.297zm0 3.062c-.457 0-.828-.343-.828-.765 0-.423.371-.766.828-.766.457 0 .828.343.828.766 0 .422-.37.765-.828.765z" fill="#F0CC8E"/><path d="M5.797 26.031c-.458 0-.828.343-.828.766v19.14c0 .424.37.766.828.766.458 0 .828-.342.828-.766v-19.14c0-.424-.37-.766-.828-.766zm41.406 0c-.458 0-.828.343-.828.766v19.14c0 .424.37.766.828.766.458 0 .828-.342.828-.766v-19.14c0-.424-.37-.766-.828-.766z" fill="#F0CC8E"/></svg>