<svg width="156" height="12" fill="none" xmlns="http://www.w3.org/2000/svg"><path d="M6.54 11.21c3.24 0 5.67-2.445 5.67-5.46 0-3.045-2.4-5.46-5.64-5.46C3.33.29.9 2.735.9 5.75c0 3.045 2.4 5.46 5.64 5.46zm.03-2.625c-1.59 0-2.685-1.32-2.685-2.835 0-1.545 1.065-2.835 2.655-2.835 1.605 0 2.7 1.32 2.7 2.835 0 1.545-1.065 2.835-2.67 2.835zm15.21 2.625c2.326 0 3.66-1.005 4.65-2.37l-2.19-1.56c-.63.765-1.274 1.275-2.37 1.275-1.47 0-2.504-1.23-2.504-2.805 0-1.56 1.035-2.805 2.505-2.805 1.005 0 1.71.465 2.31 1.215l2.13-1.65C25.38 1.22 24.046.29 21.9.29c-3.18 0-5.535 2.4-5.535 5.46 0 3.165 2.415 5.46 5.415 5.46zM33.249 11h2.91V3.05h3.15V.5h-9.21v2.55h3.15V11zm15.617.21c3.24 0 5.67-2.445 5.67-5.46 0-3.045-2.4-5.46-5.64-5.46-3.24 0-5.67 2.445-5.67 5.46 0 3.045 2.4 5.46 5.64 5.46zm.03-2.625c-1.59 0-2.685-1.32-2.685-2.835 0-1.545 1.065-2.835 2.655-2.835 1.605 0 2.7 1.32 2.7 2.835 0 1.545-1.065 2.835-2.67 2.835zM58.031 11h3.45l2.4-3.96 1.005 1.17V11h2.91V8.21l1.005-1.17 2.4 3.96h3.45l-3.87-6.075L74.516.5h-3.405l-3.315 4.26V.5h-2.91v4.26L61.571.5h-3.405l3.735 4.425L58.031 11zm20.456 0h8.52V8.525h-5.64V6.86h5.04V4.565h-5.04v-1.59h5.565V.5h-8.445V11zm13.005 0h2.91V7.01h3.734V11h2.911V.5h-2.91v3.93H94.4V.5h-2.91V11zm14.411 0h2.91V8.285l1.065-1.185 2.64 3.9h3.495l-4.11-5.985L115.878.5h-3.45l-3.615 4.26V.5h-2.91V11zm13.117 0h3.06l.75-1.875h4.05l.765 1.875h3.12L126.295.425h-2.805L119.02 11zm4.665-4.14l1.185-2.985 1.17 2.985h-2.355zM143.459 11h2.865V.425h-2.115l-3.075.87.555 2.25 1.77-.405V11zm9.328 0h2.865V.425h-2.115l-3.075.87.555 2.25 1.77-.405V11z" fill="#fff"/></svg>