<svg width="31" height="33" fill="none" xmlns="http://www.w3.org/2000/svg"><path fill-rule="evenodd" clip-rule="evenodd" d="M29.048 14.093c-.14.14-.278.28-.556.419-1.113.976-2.92 1.673-5.424 2.37-5.284 1.395-9.038 1.674-13.349 2.79l-2.503.836c.835.418 1.669.837 2.503 1.116 1.808-.558 2.642-.698 5.145-1.255.974-.14 3.894-.698 6.119-1.116 3.754-.837 9.456-2.79 8.065-5.16zm-2.503-5.16c-.834-.418-1.808-.697-2.92-1.115-.556.418-1.113.697-1.947 1.116 1.39.279 2.364.697 3.615.976.14.14.974-.697 1.252-.976zm-19.05 5.44c5.005-1.535 10.428-1.953 15.852-3.487-2.086-.558-3.199-.837-5.424-.558-3.198.418-6.813 1.116-9.872 2.092-1.252.418-7.51 2.231-5.702 4.741-.139 0 .974-1.534 5.145-2.789zm-3.616 8.924c0 .418.278.976.834 1.395.14-.28.14-.419.417-.698-.417-.279-.834-.418-1.251-.697zm2.503-.279c.417-.279.834-.418 1.39-.697-.695-.28-1.39-.697-2.224-.976-.279.279-.696.418-.835.697.417.279.974.697 1.669.976zM25.85 11.862c-.974.558-2.503.976-4.59 1.534-1.668.418-5.979 1.116-10.428 2.092-1.39.279-5.284 1.255-7.231 2.928.556.419.834.558 1.39.837.835-.558 1.808-.976 3.477-1.395 2.78-.836 4.867-1.115 7.37-1.534 2.503-.418 7.092-1.394 9.734-2.37.834-.279 1.668-.697 2.224-1.116-.278-.279-1.946-1.115-1.946-.976zm1.53-.976c.556.279.973.418 1.39.837.278-.698.139-.977-.556-1.674l-.835.837zM3.74 20.369c-.417-.28-.695-.419-1.113-.698-.139.419.14.976.557 1.255.139-.279.278-.418.556-.557zM25.293 5.866a3.037 3.037 0 0 1-.695 1.115c.695.28 1.53.558 2.225.837 0-.837-.834-1.534-1.53-1.952zM1.376 10.328C6.66 6.702 12.639 4.611 22.512 6.424c.556-.28.835-.698.974-1.255-2.503-.977-5.145-1.256-8.622-1.256-3.198.14-8.76 1.256-11.82 3.208l.974-1.255c2.086-1.255 7.648-2.929 11.68-3.068 2.92 0 4.45.14 7.927 1.115-.278-.557-.974-.976-2.086-1.394-3.337-1.534-9.595-1.673-14.74.697.695-.418 1.252-.836 2.086-1.255 1.669-.837 4.45-1.534 7.926-1.534 2.781 0 5.98.976 8.065 3.068.278.418.556.837.556 1.255 1.53.837 2.504 1.674 3.06 2.51.139.419.278.976.139 1.534.695.419.973.697 1.251 1.255.278.419.417.837.417 1.255 0 .558.14 1.116-.417 1.813.556.28.974 1.116.974 1.395.278 1.255-.557 2.51-1.53 3.346-1.112 1.116-3.755 2.371-5.84 2.929-4.172 1.116-7.787 1.534-10.708 2.092 1.252.278 3.06.697 5.98.697 6.257 0 11.68-3.068 11.68-3.068s-.139.418-.278.697c-3.893 2.51-10.29 3.487-12.932 3.347-2.78-.14-5.006-.558-7.23-1.255-.696.14-1.391.418-2.086.697 3.476 1.674 5.979 1.953 8.9 2.231 2.92.28 7.925-.557 12.097-2.091-.14.14-.278.558-.417.697-2.086 1.116-6.675 2.37-8.9 2.37-2.225.14-5.006 0-7.37-.418-2.086-.418-3.754-1.115-5.423-1.952-.278.279-.417.558-.556.976 6.814 3.765 13.21 3.765 20.58 1.395l-.695.697c-8.065 3.347-14.323 2.091-19.19-.419-.139-.139-.417-.139-.556-.278.417.836 4.172 3.625 8.343 4.044 2.92.279 6.397-.28 8.483-1.116l-1.252.697c-.973.558-3.615 1.674-7.37 1.395-5.006-.419-7.787-2.65-9.038-3.765-.557-.558-.835-1.255-.974-1.953-1.112-.558-1.808-1.255-2.364-2.23-.278-.559-.278-1.117-.139-1.674 0-.14 0-.28.14-.419-.557-.418-1.113-.836-1.252-1.255-.556-.976-.14-1.673.139-2.37a3.038 3.038 0 0 1-.695-1.116c-.14-.418-.14-.837-.14-1.255.14-.837.557-1.534.974-2.092 1.112-1.255 2.781-2.23 5.701-3.347 2.92-.976 4.033-1.115 6.119-1.673 2.503-.558 5.562-.837 8.065-1.673C14.169 6.145 6.799 7.26.82 11.583l.556-1.255z" fill="#D1D1D1"/></svg>