<svg width="48" height="46" fill="none" xmlns="http://www.w3.org/2000/svg"><path d="M47.999 22.067c0 13.215-10.744 23.933-24 23.933C10.747 46 0 35.282 0 22.067c0-.54.022-1.071.056-1.599l14.53 8.337 30.778-17.658a23.798 23.798 0 0 1 2.635 10.92zm-33.413.714l-13.528-7.76c-.265.86-.482 1.74-.649 2.64l14.177 8.132L44.042 8.896a24.986 24.986 0 0 0-1.57-2.113L14.586 22.781zm26.06-17.957a24.248 24.248 0 0 0-2.108-1.803L14.586 16.76 3.153 10.2a23.8 23.8 0 0 0-1.174 2.339l12.607 7.229 26.06-14.945zm-26.06 8.926L36.115 1.402C35.215.876 34.28.407 33.31 0L14.586 10.74 6.25 5.957a24.362 24.362 0 0 0-1.673 2.05l10.01 5.743z" fill="#D1D1D1"/></svg>