<svg width="39" height="32" fill="none" xmlns="http://www.w3.org/2000/svg"><path d="M29.503 15.721H6.065s.708 2.264 1.504 3.418h20.828s3.98 3.106 5.881 8.61h-21.89A25.65 25.65 0 0 1 4.297 15.72c.177-.577.398-1.154.62-1.73h24.542c1.902-1.332 3.803-3.418 3.803-3.418H6.641c.353-.577.707-1.154 1.149-1.731h26.886c.708-.844 2.123-3.418 2.123-3.418h-26.09a18.575 18.575 0 0 1 1.99-1.73h24.896c.663-1.643 1.15-3.418 1.15-3.418h-27.02C6.597 3.96 2.66 9.374.936 15.72 2.66 22.023 6.553 27.438 11.77 31.166h26.975c-.044 0-.487-8.21-9.242-15.445z" fill="#D1D1D1"/></svg>