<svg width="45" height="45" fill="none" xmlns="http://www.w3.org/2000/svg"><path d="M.015 0v44.356l.354.22c.45.285.974.432 1.507.424h.016a3.033 3.033 0 0 0 2.181-.949 1.578 1.578 0 0 1 1.186-.565h.01c.456.006.886.209 1.183.555a3.033 3.033 0 0 0 2.173.93h.016a2.744 2.744 0 0 0 1.521-.436l.35-.22v-3.828h23.992v3.827l.35.221a2.75 2.75 0 0 0 1.52.436h.015a3.039 3.039 0 0 0 2.175-.93 1.585 1.585 0 0 1 1.182-.555h.01c.459.008.892.214 1.186.565.568.6 1.355.942 2.18.949h.017a2.738 2.738 0 0 0 1.507-.424l.355-.22V0H.015zm38.987 26.953v1.598a5.253 5.253 0 0 0-4.498 5.188v2.25h-9.747V4.499h3.749v11.246a11.252 11.252 0 0 0 10.496 11.208zm-32.989 0A11.251 11.251 0 0 0 16.51 15.745V4.499h3.748v22.746l-3.934-4.496-1.129.987 5.064 5.787v2.19l-3.18-3.71-1.138.976 4.318 5.037v1.973h-9.747v-2.25a5.252 5.252 0 0 0-4.499-5.188v-1.598zM21.758 4.5h1.5v31.49h-1.5V4.499zm-5.248-3h11.996V3H16.51V1.5zm-14.996 0H15.01v2.86l-.009.007c-.141.085-.274.172-.404.259a3.016 3.016 0 0 1-3.673 0 4.313 4.313 0 0 0-2.667-.876 4.308 4.308 0 0 0-2.664.876 2.836 2.836 0 0 1-1.834.623 2.842 2.842 0 0 1-1.835-.623 9.67 9.67 0 0 0-.402-.26l-.008-.004V1.5zm0 4.644l.016.008c.115.069.239.135.37.198l.088.04c.133.06.27.112.41.157.018.006.035.014.055.02.172.05.347.09.524.117l.136.02c.214.029.43.044.646.045.962.013 1.9-.295 2.666-.876a2.835 2.835 0 0 1 1.832-.624 2.836 2.836 0 0 1 1.835.624c.767.581 1.705.89 2.667.876a4.873 4.873 0 0 0 .784-.065c.177-.028.353-.067.526-.118l.057-.02a3.91 3.91 0 0 0 .41-.158l.085-.038c.133-.064.258-.13.374-.2l.015-.008v9.604a9.761 9.761 0 0 1-6.951 9.334c1.235-1.422 2.453-3.835 2.453-7.835h-1.5c0 6.302-3.274 7.986-3.891 8.248H1.514V6.143zm0 20.848h3v1.5h-3v-1.5zm2.048 3c.526.333 2.451 1.786 2.451 5.248h1.5a7.974 7.974 0 0 0-1.693-5.192 3.744 3.744 0 0 1 3.192 3.692v5.213a.938.938 0 0 1-.054.013c-.042.008-.082.017-.129.023l-.06.004c-.049.004-.098.008-.143.01a1.585 1.585 0 0 1-1.183-.556 3.065 3.065 0 0 0-2.19-.93 3.034 3.034 0 0 0-2.18.949 1.58 1.58 0 0 1-1.187.565h-.01a1.468 1.468 0 0 1-.362-.042v-8.997h2.048zm5.45 13.434a1.948 1.948 0 0 1-.386.047 1.585 1.585 0 0 1-1.183-.556 3.037 3.037 0 0 0-2.175-.93h-.015a3.033 3.033 0 0 0-2.18.949 1.58 1.58 0 0 1-1.187.565h-.008a1.462 1.462 0 0 1-.364-.042V40.51c.092.01.188.012.281.015.028 0 .053.005.081.005h.016a3.033 3.033 0 0 0 2.181-.949 1.578 1.578 0 0 1 1.186-.565h.01c.456.006.886.209 1.183.555.111.099.233.206.37.311a2.81 2.81 0 0 0 1.803.619h.016c.031 0 .06-.005.09-.006.094-.004.19-.005.281-.016v2.946zm1.5-5.937h23.992v1.5H10.512v-1.5zm32.99 5.97c-.104.027-.226.02-.373.042a1.58 1.58 0 0 1-1.186-.565 3.034 3.034 0 0 0-2.181-.948h-.015a3.037 3.037 0 0 0-2.174.929c-.297.347-.728.55-1.185.556a3.085 3.085 0 0 1-.384-.047V40.48c.12.014.242.021.364.022h.021l.02-.001a2.94 2.94 0 0 0 2.155-.929 1.584 1.584 0 0 1 1.182-.555h.01c.459.008.892.214 1.186.565.568.6 1.355.942 2.18.949h.021c.12.002.24-.004.358-.02v2.948zm0-4.473l-.033.007a1.535 1.535 0 0 1-.34.038 1.58 1.58 0 0 1-1.186-.565 3.035 3.035 0 0 0-2.18-.948h-.015l-.022.001a2.922 2.922 0 0 0-2.153.928c-.095.084-.182.16-.267.228a1.333 1.333 0 0 1-.918.328l-.071-.005a1.661 1.661 0 0 1-.151-.01c-.033-.005-.062-.012-.092-.018a.956.956 0 0 1-.07-.017V33.74a3.743 3.743 0 0 1 3.192-3.692 7.977 7.977 0 0 0-1.693 5.192h1.5c0-3.457 1.908-4.907 2.45-5.248H43.5v8.994zm0-10.494h-3v-1.5h3v1.5zm-3.607-3c-.58-.248-3.892-1.94-3.892-8.247h-1.499c0 4 1.218 6.413 2.453 7.835a9.761 9.761 0 0 1-6.952-9.334V6.141l.017.008c.115.07.24.136.373.2l.084.038c.134.06.271.113.411.158l.057.02a4.113 4.113 0 0 0 .66.137c.216.03.433.045.65.046.962.013 1.9-.295 2.666-.876a3.007 3.007 0 0 1 3.668 0 4.31 4.31 0 0 0 2.665.876 4.844 4.844 0 0 0 .783-.065c.177-.027.352-.067.524-.117.02-.006.036-.014.055-.02a3.88 3.88 0 0 0 .41-.157c.029-.014.06-.026.087-.04a4.55 4.55 0 0 0 .37-.198l.016-.008v19.349h-3.605zM43.502 1.5v2.86l-.007.006c-.141.085-.273.172-.403.259a3.008 3.008 0 0 1-3.668 0 4.495 4.495 0 0 0-5.331 0 3.016 3.016 0 0 1-3.674 0 11.05 11.05 0 0 0-.403-.26l-.01-.006V1.5h13.496z" fill="#F0CC8E"/></svg>